<svg width="20" height="20" viewBox="0 0 20 20" fill="none" xmlns="http://www.w3.org/2000/svg">
<path d="M12.3111 13.9889L15.1889 11.1111H4.44444V8.88889H15.1889L12.3111 6.01111L13.8889 4.44444L19.4444 10L13.8889 15.5556L12.3111 13.9889ZM17.7778 0C18.3671 0 18.9324 0.234126 19.3491 0.650874C19.7659 1.06762 20 1.63285 20 2.22222V7.41111L17.7778 5.18889V2.22222H2.22222V17.7778H17.7778V14.8111L20 12.5889V17.7778C20 18.3671 19.7659 18.9324 19.3491 19.3491C18.9324 19.7659 18.3671 20 17.7778 20H2.22222C0.988889 20 0 19 0 17.7778V2.22222C0 0.988889 0.988889 0 2.22222 0H17.7778Z" fill="black"/>
</svg>
