<svg width="90" height="90" viewBox="0 0 90 90" fill="none" xmlns="http://www.w3.org/2000/svg">
<path d="M38.732 5.0422C42.392 2.09793 47.608 2.09793 51.268 5.04219L58.8066 11.1065C59.9995 12.0661 61.3968 12.739 62.8907 13.0733L72.3322 15.1862C76.9162 16.212 80.1682 20.29 80.1483 24.9872L80.1073 34.6622C80.1008 36.1931 80.4459 37.7051 81.116 39.0816L85.3507 47.7806C87.4067 52.004 86.2461 57.0892 82.5612 60.0023L74.9715 66.0024C73.7705 66.9519 72.8035 68.1644 72.1451 69.5465L67.9843 78.2812C65.9642 82.5219 61.2648 84.785 56.6898 83.7203L47.2665 81.5274C45.7754 81.1805 44.2246 81.1805 42.7335 81.5274L33.3102 83.7203C28.7352 84.785 24.0358 82.5219 22.0157 78.2812L17.8549 69.5465C17.1965 68.1644 16.2295 66.9519 15.0285 66.0024L7.43878 60.0023C3.75391 57.0892 2.59325 52.004 4.64926 47.7806L8.88402 39.0816C9.55412 37.7051 9.89922 36.1931 9.89273 34.6622L9.8517 24.9872C9.83178 20.29 13.0839 16.212 17.6678 15.1862L27.1093 13.0733C28.6032 12.739 30.0005 12.0661 31.1934 11.1065L38.732 5.0422Z" fill="white"/>
<circle cx="45" cy="45" r="26.5" stroke="#1AA7EC" stroke-width="5"/>
<rect x="16" y="31" width="58" height="28" fill="white"/>
<path d="M18.6499 36.5455H23.201L28.0078 48.2727H28.2124L33.0192 36.5455H37.5703V54H33.9908V42.6392H33.8459L29.3288 53.9148H26.8913L22.3743 42.5966H22.2294V54H18.6499V36.5455ZM56.0114 42.6562H52.2784C52.2102 42.1733 52.071 41.7443 51.8608 41.3693C51.6506 40.9886 51.3807 40.6648 51.0511 40.3977C50.7216 40.1307 50.3409 39.9261 49.9091 39.7841C49.483 39.642 49.0199 39.571 48.5199 39.571C47.6165 39.571 46.8295 39.7955 46.1591 40.2443C45.4886 40.6875 44.9688 41.3352 44.5994 42.1875C44.2301 43.0341 44.0455 44.0625 44.0455 45.2727C44.0455 46.517 44.2301 47.5625 44.5994 48.4091C44.9744 49.2557 45.4972 49.8949 46.1676 50.3267C46.8381 50.7585 47.6136 50.9744 48.4943 50.9744C48.9886 50.9744 49.446 50.9091 49.8665 50.7784C50.2926 50.6477 50.6705 50.4574 51 50.2074C51.3295 49.9517 51.6023 49.642 51.8182 49.2784C52.0398 48.9148 52.1932 48.5 52.2784 48.0341L56.0114 48.0511C55.9148 48.8523 55.6733 49.625 55.2869 50.3693C54.9063 51.108 54.392 51.7699 53.7443 52.3551C53.1023 52.9347 52.3352 53.3949 51.4432 53.7358C50.5568 54.071 49.554 54.2386 48.4347 54.2386C46.8778 54.2386 45.4858 53.8864 44.2585 53.1818C43.0369 52.4773 42.071 51.4574 41.3608 50.1222C40.6562 48.7869 40.304 47.1705 40.304 45.2727C40.304 43.3693 40.6619 41.75 41.3778 40.4148C42.0938 39.0795 43.0653 38.0625 44.2926 37.3636C45.5199 36.6591 46.9006 36.3068 48.4347 36.3068C49.446 36.3068 50.3835 36.4489 51.2472 36.733C52.1165 37.017 52.8864 37.4318 53.5568 37.9773C54.2273 38.517 54.7727 39.179 55.1932 39.9631C55.6193 40.7472 55.892 41.6449 56.0114 42.6562ZM68.1264 41.5653C68.0582 40.8778 67.7656 40.3437 67.2486 39.9631C66.7315 39.5824 66.0298 39.392 65.1435 39.392C64.5412 39.392 64.0327 39.4773 63.6179 39.6477C63.2031 39.8125 62.8849 40.0426 62.6634 40.3381C62.4474 40.6335 62.3395 40.9688 62.3395 41.3438C62.3281 41.6562 62.3935 41.929 62.5355 42.1619C62.6832 42.3949 62.8849 42.5966 63.1406 42.767C63.3963 42.9318 63.6918 43.0767 64.027 43.2017C64.3622 43.321 64.7202 43.4233 65.1009 43.5085L66.669 43.8835C67.4304 44.054 68.1293 44.2812 68.7656 44.5653C69.402 44.8494 69.9531 45.1989 70.419 45.6136C70.8849 46.0284 71.2457 46.517 71.5014 47.0795C71.7628 47.642 71.8963 48.2869 71.902 49.0142C71.8963 50.0824 71.6236 51.0085 71.0838 51.7926C70.5497 52.571 69.777 53.1761 68.7656 53.608C67.7599 54.0341 66.5469 54.2472 65.1264 54.2472C63.7173 54.2472 62.4901 54.0312 61.4446 53.5994C60.4048 53.1676 59.5923 52.5284 59.0071 51.6818C58.4276 50.8295 58.1236 49.7756 58.0952 48.5199H61.6662C61.706 49.1051 61.8736 49.5937 62.169 49.9858C62.4702 50.3722 62.8707 50.6648 63.3707 50.8636C63.8764 51.0568 64.4474 51.1534 65.0838 51.1534C65.7088 51.1534 66.2514 51.0625 66.7116 50.8807C67.1776 50.6989 67.5384 50.446 67.794 50.1222C68.0497 49.7983 68.1776 49.4261 68.1776 49.0057C68.1776 48.6136 68.0611 48.2841 67.8281 48.017C67.6009 47.75 67.2656 47.5227 66.8224 47.3352C66.3849 47.1477 65.848 46.9773 65.2116 46.8239L63.3111 46.3466C61.8395 45.9886 60.6776 45.429 59.8253 44.6676C58.973 43.9062 58.5497 42.8807 58.5554 41.5909C58.5497 40.5341 58.831 39.6108 59.3991 38.821C59.973 38.0312 60.7599 37.4148 61.7599 36.9716C62.7599 36.5284 63.8963 36.3068 65.169 36.3068C66.4645 36.3068 67.5952 36.5284 68.5611 36.9716C69.5327 37.4148 70.2884 38.0312 70.8281 38.821C71.3679 39.6108 71.6463 40.5256 71.6634 41.5653H68.1264Z" fill="#1AA7EC"/>
</svg>
